<svg width="20" height="20" viewBox="0 0 20 20" fill="none" xmlns="http://www.w3.org/2000/svg">
<path fill-rule="evenodd" clip-rule="evenodd" d="M0.176993 1.03109C-0.0588815 0.795213 -0.0588814 0.412783 0.176993 0.176907C0.412868 -0.0589689 0.795297 -0.058969 1.03117 0.176907L10 9.14578L18.9688 0.176912C19.2047 -0.0589637 19.5871 -0.0589636 19.823 0.176912C20.0589 0.412788 20.0589 0.795218 19.823 1.03109L10.8542 9.99996L19.8231 18.9689C20.059 19.2048 20.059 19.5872 19.8231 19.8231C19.5872 20.059 19.2048 20.059 18.9689 19.8231L10 10.8541L1.03108 19.8231C0.795209 20.059 0.412781 20.059 0.176906 19.8231C-0.0589686 19.5872 -0.0589688 19.2048 0.176906 18.9689L9.14582 9.99996L0.176993 1.03109Z" fill="white"/>
</svg>
