<svg width="21" height="20" viewBox="0 0 21 20" fill="none" xmlns="http://www.w3.org/2000/svg">
<path d="M18.0584 0H2.94568C1.59663 0 0.5 1.441 0.5 3.2137V16.7863C0.5 18.559 1.59663 20 2.94568 20H18.0543C19.4034 20 20.5 18.559 20.5 16.7863V3.21914C20.5041 1.44644 19.4075 0 18.0584 0ZM19.3868 16.7863C19.3868 17.7488 18.7909 18.5318 18.0584 18.5318H2.94568C2.21322 18.5318 1.61732 17.7488 1.61732 16.7863V3.21914C1.61732 2.25666 2.21322 1.47363 2.94568 1.47363H18.0543C18.7868 1.47363 19.3827 2.25666 19.3827 3.21914V16.7863H19.3868Z" fill="#00B2FF"/>
<path d="M13.3061 10.0499L18.1975 4.2859C18.4251 4.01401 18.4458 3.5518 18.2389 3.24729C18.032 2.94821 17.6802 2.92102 17.4485 3.19291L10.7032 11.1483L9.38723 9.604C9.3831 9.59857 9.37896 9.59313 9.37896 9.58769C9.34999 9.54963 9.32102 9.517 9.28792 9.48437L3.93307 3.18747C3.70133 2.91559 3.34958 2.94277 3.14267 3.24729C2.93576 3.5518 2.95645 4.01401 3.18819 4.2859L8.13749 10.0988L3.20888 16.1619C2.98542 16.4392 2.973 16.9014 3.18405 17.2005C3.29578 17.3528 3.44476 17.4343 3.59374 17.4343C3.7303 17.4343 3.86686 17.3691 3.97445 17.2386L8.97755 11.0885L10.3349 12.6818C10.4425 12.8068 10.5749 12.8666 10.7073 12.8666C10.8397 12.8666 10.9763 12.8014 11.0798 12.6763L12.4743 11.0341L17.4485 17.244C17.5561 17.38 17.6968 17.4452 17.8333 17.4452C17.9823 17.4452 18.1271 17.3691 18.2389 17.2168C18.4499 16.9232 18.4416 16.4556 18.2182 16.1782L13.3061 10.0499Z" fill="#00B2FF"/>
</svg>
