<svg height="152" version="1.1" width="152" xmlns="http://www.w3.org/2000/svg" xmlns:xlink="http://www.w3.org/1999/xlink" style="overflow: hidden; position: relative; left: -0.5px;" viewBox="0 0 320 320" preserveAspectRatio="xMidYMid meet" id="main_svg"><svg height="320" version="1.1" width="320" xmlns="http://www.w3.org/2000/svg" xmlns:xlink="http://www.w3.org/1999/xlink" style="overflow: hidden; position: relative;" viewBox="0 0 16 16" preserveAspectRatio="xMidYMid meet" id="imported_svg_layer_1"><path fill="#1453d4" stroke="none" d="M0,14H16V16H0ZM0,0H16V2H0Z" stroke-width="0" transform="matrix(1,0,0,1,0,0)" style="-webkit-tap-highlight-color: rgba(0, 0, 0, 0);"></path><desc style="-webkit-tap-highlight-color: rgba(0, 0, 0, 0);">Created with Logotizer</desc><defs style="-webkit-tap-highlight-color: rgba(0, 0, 0, 0);"></defs></svg><svg height="320" version="1.1" width="320" xmlns="http://www.w3.org/2000/svg" xmlns:xlink="http://www.w3.org/1999/xlink" style="overflow: hidden; position: relative;" viewBox="0 0 160 160" preserveAspectRatio="xMidYMid meet" id="imported_svg_layer_2"><desc style="-webkit-tap-highlight-color: rgba(0, 0, 0, 0);">Created with Logotizer</desc><defs style="-webkit-tap-highlight-color: rgba(0, 0, 0, 0);"></defs><path fill="#ffffff" stroke="#d5d5d5" d="M48.151,128.159S42.825,96.119,64.129,80.09899999999999C85.434,64.079,90.76,69.41899999999998,101.412,42.71899999999999C112.065,16.02,117.391,0,117.391,0L122.717,10.68L133.369,5.34S128.043,16.02,138.695,21.36C149.348,26.7,160,26.7,160,37.38S133.37,48.06,133.37,48.06S138.695,74.76,133.37,90.78C128.042,106.798,140,149.517,150,150C139.348,149.518,135,150,135,150S122.717,138.839,117.39,117.479C112.066,96.119,105,130,105,130S99.348,138.839,110,138.839C120.652,138.839,122.717,150,122.717,150H69.456S58.803000000000004,133.499,48.151,144.179C37.499,154.859,16.194000000000003,149.519,5.541000000000004,138.839C-5.109999999999996,128.159,0.21600000000000374,112.139,16.194000000000003,128.159C32.173,144.179,48.151,128.159,48.151,128.159Z" stroke-width="2" transform="matrix(1,0,0,1,0,0)" style="-webkit-tap-highlight-color: rgba(0, 0, 0, 0); display: none; cursor: move;"></path></svg><desc style="-webkit-tap-highlight-color: rgba(0, 0, 0, 0);">Created with Logotizer</desc><defs style="-webkit-tap-highlight-color: rgba(0, 0, 0, 0);"></defs><path fill="#12e3f3" stroke="none" d="M-132.19,-47.8L-131.98,-48.45L-101.47,-48.45Q-101.47,-34.48,-92.93,-27.98Q-84.39,-21.48,-69.13,-21.48Q-56.35,-21.48,-49.58,-26.75Q-42.82,-32.01,-42.82,-40.82Q-42.82,-49.84,-49.21,-55.32Q-55.6,-60.8,-71.61,-65.63Q-99.54,-73.69,-113.82,-84.76Q-128.11,-95.82,-128.11,-115.05Q-128.11,-134.28,-111.73,-146.47Q-95.35,-158.66,-69.89,-158.66Q-44.11,-158.77,-27.88,-145.02Q-12.2,-131.81,-12.2,-112.47Q-12.2,-111.83,-12.2,-111.18L-12.42,-110.54L-42.82,-110.54Q-42.82,-121.39,-50.07,-128.1Q-57.32,-134.81,-70.42,-134.81Q-82.99,-134.81,-89.87,-129.23Q-96.74,-123.64,-96.74,-114.94Q-96.74,-106.99,-89.38,-101.89Q-82.03,-96.79,-63.98,-91.09Q-38.09,-83.9,-24.77,-72.08Q-11.45,-60.26,-11.45,-41.04Q-11.45,-20.95,-27.29,-9.35Q-43.14,2.26,-69.13,2.26Q-94.7,2.15,-113.71,-10.96Q-132.19,-23.74,-132.19,-46.51Q-132.19,-47.16,-132.19,-47.8ZM12.29,0L12.29,-156.41L66,-156.41Q94.68,-156.41,113.27,-138.09Q131.85,-119.78,131.85,-91.09L131.85,-65.21Q131.85,-36.42,113.27,-18.21Q94.68,0,66,0L12.29,0M43.66,-24.06L64.39,-24.06Q81.26,-24.06,90.82,-35.45Q100.38,-46.84,100.38,-65.21L100.38,-91.31Q100.38,-109.46,90.82,-120.85Q81.26,-132.24,64.39,-132.24L43.66,-132.24L43.66,-24.06Z" transform="matrix(1,0,0,1,160,237)" style="-webkit-tap-highlight-color: rgba(0, 0, 0, 0);"></path></svg>
